<svg xmlns="http://www.w3.org/2000/svg" width="64" height="84" viewBox="0 0 64 84">
  <g stroke="#211934" stroke-width="3" stroke-linecap="round" stroke-linejoin="round">
    <path fill="#71312d" d="M14 17Q16 4 32 4q16 0 18 14l-4 20-9-4H26l-10 4z"/>
    <path fill="#ee9e69" d="M20 15q3-7 12-7 10 0 13 8v13q-2 9-13 9-10 0-12-9z"/>
    <path fill="#8f3d35" d="M16 17Q19 4 32 4q14 0 18 13l-8-4q-3 6-11 7l-6-5-5 8-2 12-4-4z"/>
    <path fill="#71312d" d="M17 27l6 2 3 7-9 3zm30-1-6 3-4 7 9 3z"/>
    <path fill="#211934" stroke="none" d="M25 23h3v3h-3zm11 0h3v3h-3z"/>
    <path fill="none" d="M29 32q3 1 6 0"/>
    <path fill="#ee9e69" d="M28 36h8v7h-8z"/>
    <path fill="#16a1bd" d="M20 41q-6 2-9 8l2 8 8-2 5-10"/>
    <path fill="#ee9e69" d="M13 55l8-2 3 5-5 6q-4 2-7-1-2-3 1-8Z"/>
    <path fill="#087f9d" d="M18 39q4-3 10-3h8q6 0 10 3l2 18-9 4H25l-8-4z"/>
    <path fill="#16a1bd" d="M44 41q6 2 8 8l-2 8-8-2-3-10"/>
    <path fill="#ee9e69" d="M50 55l-8-2-7 3 2 6 8-2q5 3 7-1 1-2-2-4Z"/>
    <path fill="#f7f0df" d="M23 53h19l-3 8H25z"/>
    <path fill="#23385f" d="M24 59h16l3 17H33l-1-10-1 10H21z"/>
    <path fill="#f7f0df" d="M20 74h12v6q-1 2-4 2H18q-2-5 2-8Zm12 0h12q4 3 2 8H36q-3 0-4-2z"/>
  </g>
</svg>
