<?xml version="1.0" encoding="UTF-8"?>
<svg xmlns="http://www.w3.org/2000/svg" viewBox="0 0 900 1200" width="900" height="1200" role="img" aria-labelledby="title desc">
  <title id="title">Foxglove Broadcast</title>
  <desc id="desc">A clean vector study for the Night Garden collection.</desc>
  <defs>
    
      <linearGradient id="bg" x2="1" y2="1"><stop stop-color="#461e36"/><stop offset=".55" stop-color="#8d3d45"/><stop offset="1" stop-color="#db805e"/></linearGradient>
      <linearGradient id="bell"><stop stop-color="#ffcfb3"/><stop offset=".6" stop-color="#d66c83"/><stop offset="1" stop-color="#813a65"/></linearGradient>
    <clipPath id="field"><rect x="24" y="24" width="852" height="1152" rx="7"/></clipPath>
  </defs>
  <g clip-path="url(#field)">
      <rect width="900" height="1200" fill="url(#bg)"/>
      <circle cx="450" cy="430" r="250" fill="none" stroke="#f2bd73" stroke-width="3" opacity=".42"/>
      <circle cx="450" cy="430" r="190" fill="none" stroke="#f2bd73" stroke-width="18" opacity=".18"/>
      <circle cx="266.9" cy="668.3" r="2.8" fill="#ffd397" opacity="0.78"/><circle cx="608.6" cy="573.2" r="1.2" fill="#ffd397" opacity="0.74"/><circle cx="632.6" cy="321.0" r="2.2" fill="#ffd397" opacity="0.68"/><circle cx="602.7" cy="728.3" r="3.8" fill="#ffd397" opacity="0.43"/><circle cx="386.4" cy="490.7" r="1.3" fill="#ffd397" opacity="0.46"/><circle cx="754.2" cy="249.9" r="0.9" fill="#ffd397" opacity="0.43"/><circle cx="652.6" cy="766.2" r="3.1" fill="#ffd397" opacity="0.48"/><circle cx="585.0" cy="336.6" r="1.2" fill="#ffd397" opacity="0.88"/><circle cx="312.4" cy="592.6" r="3.8" fill="#ffd397" opacity="0.44"/><circle cx="612.1" cy="357.8" r="2.5" fill="#ffd397" opacity="0.77"/><circle cx="73.0" cy="757.6" r="0.9" fill="#ffd397" opacity="0.31"/><circle cx="219.8" cy="123.7" r="0.9" fill="#ffd397" opacity="0.31"/><circle cx="68.6" cy="744.3" r="1.1" fill="#ffd397" opacity="0.64"/><circle cx="123.8" cy="302.1" r="3.4" fill="#ffd397" opacity="0.78"/><circle cx="472.0" cy="312.4" r="2.0" fill="#ffd397" opacity="0.32"/><circle cx="737.3" cy="222.8" r="1.1" fill="#ffd397" opacity="0.53"/><circle cx="380.2" cy="746.4" r="2.7" fill="#ffd397" opacity="0.84"/><circle cx="388.9" cy="670.2" r="3.2" fill="#ffd397" opacity="0.71"/><circle cx="499.8" cy="451.6" r="2.3" fill="#ffd397" opacity="0.89"/><circle cx="501.9" cy="262.7" r="2.5" fill="#ffd397" opacity="0.72"/><circle cx="155.6" cy="97.4" r="3.5" fill="#ffd397" opacity="0.71"/><circle cx="356.7" cy="619.7" r="1.7" fill="#ffd397" opacity="0.78"/><circle cx="470.7" cy="588.1" r="3.7" fill="#ffd397" opacity="0.66"/><circle cx="393.5" cy="556.1" r="3.3" fill="#ffd397" opacity="0.71"/><circle cx="288.1" cy="701.3" r="3.6" fill="#ffd397" opacity="0.48"/><circle cx="628.3" cy="585.0" r="2.9" fill="#ffd397" opacity="0.61"/><circle cx="635.0" cy="473.9" r="3.2" fill="#ffd397" opacity="0.50"/><circle cx="499.8" cy="246.6" r="3.3" fill="#ffd397" opacity="0.38"/><circle cx="348.0" cy="455.2" r="3.0" fill="#ffd397" opacity="0.37"/><circle cx="148.6" cy="425.7" r="3.4" fill="#ffd397" opacity="0.50"/><circle cx="240.9" cy="627.8" r="2.4" fill="#ffd397" opacity="0.31"/><circle cx="758.2" cy="776.3" r="1.7" fill="#ffd397" opacity="0.32"/><circle cx="804.2" cy="516.3" r="2.5" fill="#ffd397" opacity="0.60"/><circle cx="797.9" cy="613.6" r="2.9" fill="#ffd397" opacity="0.87"/><circle cx="546.2" cy="482.6" r="3.1" fill="#ffd397" opacity="0.33"/>
      <path d="M445 1200 C430 950 480 680 452 215" fill="none" stroke="#3d6855" stroke-width="28"/>
      <path d="M449 960 C330 850 220 875 132 1010 C285 1035 395 1012 449 960Z" fill="#426e59" stroke="#adc078" stroke-width="6"/>
      <path d="M456 820 C570 725 680 755 776 890 C630 915 512 886 456 820Z" fill="#426e59" stroke="#adc078" stroke-width="6"/>
      <g transform="translate(470 285) scale(1 1)"><path d="M0 0 C48 -13 118 13 140 70 C105 118 39 122 4 80 C27 48 28 28 0 0Z" fill="url(#bell)" stroke="#ffd4b8" stroke-width="5"/><ellipse cx="111" cy="76" rx="18" ry="9" fill="#532744"/><g fill="#71304d"><circle cx="69" cy="56" r="6"/><circle cx="92" cy="40" r="5"/><circle cx="83" cy="77" r="4"/></g></g><g transform="translate(434 361) scale(-1 1)"><path d="M0 0 C48 -13 118 13 140 70 C105 118 39 122 4 80 C27 48 28 28 0 0Z" fill="url(#bell)" stroke="#ffd4b8" stroke-width="5"/><ellipse cx="111" cy="76" rx="18" ry="9" fill="#532744"/><g fill="#71304d"><circle cx="69" cy="56" r="6"/><circle cx="92" cy="40" r="5"/><circle cx="83" cy="77" r="4"/></g></g><g transform="translate(470 437) scale(1 1)"><path d="M0 0 C48 -13 118 13 140 70 C105 118 39 122 4 80 C27 48 28 28 0 0Z" fill="url(#bell)" stroke="#ffd4b8" stroke-width="5"/><ellipse cx="111" cy="76" rx="18" ry="9" fill="#532744"/><g fill="#71304d"><circle cx="69" cy="56" r="6"/><circle cx="92" cy="40" r="5"/><circle cx="83" cy="77" r="4"/></g></g><g transform="translate(434 513) scale(-1 1)"><path d="M0 0 C48 -13 118 13 140 70 C105 118 39 122 4 80 C27 48 28 28 0 0Z" fill="url(#bell)" stroke="#ffd4b8" stroke-width="5"/><ellipse cx="111" cy="76" rx="18" ry="9" fill="#532744"/><g fill="#71304d"><circle cx="69" cy="56" r="6"/><circle cx="92" cy="40" r="5"/><circle cx="83" cy="77" r="4"/></g></g><g transform="translate(470 589) scale(1 1)"><path d="M0 0 C48 -13 118 13 140 70 C105 118 39 122 4 80 C27 48 28 28 0 0Z" fill="url(#bell)" stroke="#ffd4b8" stroke-width="5"/><ellipse cx="111" cy="76" rx="18" ry="9" fill="#532744"/><g fill="#71304d"><circle cx="69" cy="56" r="6"/><circle cx="92" cy="40" r="5"/><circle cx="83" cy="77" r="4"/></g></g><g transform="translate(434 665) scale(-1 1)"><path d="M0 0 C48 -13 118 13 140 70 C105 118 39 122 4 80 C27 48 28 28 0 0Z" fill="url(#bell)" stroke="#ffd4b8" stroke-width="5"/><ellipse cx="111" cy="76" rx="18" ry="9" fill="#532744"/><g fill="#71304d"><circle cx="69" cy="56" r="6"/><circle cx="92" cy="40" r="5"/><circle cx="83" cy="77" r="4"/></g></g><g transform="translate(470 741) scale(1 1)"><path d="M0 0 C48 -13 118 13 140 70 C105 118 39 122 4 80 C27 48 28 28 0 0Z" fill="url(#bell)" stroke="#ffd4b8" stroke-width="5"/><ellipse cx="111" cy="76" rx="18" ry="9" fill="#532744"/><g fill="#71304d"><circle cx="69" cy="56" r="6"/><circle cx="92" cy="40" r="5"/><circle cx="83" cy="77" r="4"/></g></g><g transform="translate(434 817) scale(-1 1)"><path d="M0 0 C48 -13 118 13 140 70 C105 118 39 122 4 80 C27 48 28 28 0 0Z" fill="url(#bell)" stroke="#ffd4b8" stroke-width="5"/><ellipse cx="111" cy="76" rx="18" ry="9" fill="#532744"/><g fill="#71304d"><circle cx="69" cy="56" r="6"/><circle cx="92" cy="40" r="5"/><circle cx="83" cy="77" r="4"/></g></g>
      <path d="M452 228 C400 184 409 122 453 81 C497 126 510 185 452 228Z" fill="#e9a56f"/></g>
  <rect x="24" y="24" width="852" height="1152" rx="7" fill="none" stroke="#e8d8ad" stroke-width="5" opacity=".72"/>
  <rect x="38" y="38" width="824" height="1124" rx="4" fill="none" stroke="#e8d8ad" stroke-width="1.5" opacity=".35"/>
</svg>